<svg width="375" height="96" viewBox="0 0 375 96" fill="none" xmlns="http://www.w3.org/2000/svg">
<path d="M375.173 76.9819C363.796 82.1427 352.421 87.3025 341.023 85.6404C329.626 83.9783 318.207 75.4932 306.801 70.5391C295.393 65.5851 283.996 64.1611 272.597 62.0906C261.2 60.0201 249.799 57.3032 238.407 57.4437C227.016 57.5841 215.633 60.581 204.272 70.8542C192.911 81.1273 181.574 98.6778 170.166 93.7686C158.759 88.8595 147.282 61.4919 135.883 58.7091C124.482 55.9263 113.156 77.7274 101.768 78.7724C90.3788 79.8173 78.9258 60.1061 67.5355 60.8199C56.1466 61.5338 44.8191 82.6717 33.4357 85.6351C22.0523 88.5986 10.6145 73.3887 -0.824739 58.1788L-0.999958 1.15517C10.3924 1.12017 21.7834 1.08517 33.1758 1.05016C44.5682 1.01515 55.9605 0.980149 67.3515 0.945147C78.7439 0.910141 90.1363 0.875135 101.529 0.840129C112.92 0.805127 124.312 0.770121 135.704 0.735115C147.095 0.700114 158.488 0.665108 169.88 0.630102C181.273 0.595096 192.664 0.560094 204.056 0.525088C215.448 0.490082 226.841 0.455076 238.232 0.420074C249.624 0.385068 261.016 0.350062 272.407 0.315061C283.8 0.280055 295.192 0.245049 306.585 0.210043C317.976 0.175041 329.368 0.140035 340.76 0.105029C352.153 0.0700231 363.544 0.0350213 374.936 1.5378e-05L375.173 76.9819Z" fill="#7FC7D9"/>
</svg>
