<svg width="375" height="96" viewBox="0 0 375 96" fill="none" xmlns="http://www.w3.org/2000/svg">
<path d="M-12.7635 78.203C-0.704498 83.2918 11.353 88.3796 23.391 86.6455C35.429 84.9114 47.4461 76.3543 59.4725 71.3282C71.5004 66.3022 83.5392 64.8061 95.5759 62.6637C107.611 60.5212 119.646 57.7322 131.69 57.8007C143.732 57.8692 155.784 60.794 167.859 70.9952C179.933 81.1963 192.029 98.6747 204.057 93.6936C216.085 88.7124 228.044 61.2728 240.077 58.418C252.112 55.5633 264.222 77.2924 276.267 78.2653C288.313 79.2382 300.296 59.4549 312.341 60.0968C324.385 60.7386 336.493 81.8045 348.545 84.696C360.597 87.5874 372.592 72.3055 384.589 57.0236L384.413 -1.0152e-05C372.37 0.0369957 360.328 0.0739971 348.285 0.111003C336.242 0.148009 324.199 0.185015 312.157 0.222016C300.114 0.259022 288.07 0.296028 276.027 0.333034C263.985 0.370035 251.942 0.407041 239.899 0.444047C227.857 0.481048 215.814 0.518054 203.771 0.55506C191.728 0.592066 179.686 0.629067 167.643 0.666073C155.599 0.703079 143.556 0.740085 131.514 0.777086C119.471 0.814092 107.428 0.851098 95.3861 0.888099C83.3429 0.925105 71.2996 0.962111 59.2564 0.999117C47.2147 1.03612 35.1714 1.07312 23.1282 1.11013C11.085 1.14714 -0.956795 1.18414 -13 1.22114L-12.7635 78.203Z" fill="#7FC7D9"/>
</svg>
